# xmcd CD database file
#
# Track frame offsets:
#	150
#	21859
#	36437
#	54435
#	76239
#	96556
#	116094
#	131174
#	145984
#
# Disc length: 2152 seconds
#
# Revision: 1
# Processed by: cddbd v1.4PL0 Copyright (c) Steve Scherf et al.
# Submitted via: CDex 1.50
#
DISCID=80086609
DTITLE=The Love Doctor - Doctor Of Love
DYEAR=1900
DGENRE=Blues
TTITLE0=Soaking Wet Pillow
TTITLE1=Doctor Of Love
TTITLE2=Somebody's Child
TTITLE3=Run Away
TTITLE4=Slow Roll It
TTITLE5=My Forever Love
TTITLE6=Everyday Woman
TTITLE7=Don't Quit
TTITLE8=Love Me With A Feeling
EXTD=
EXTT0=
EXTT1=
EXTT2=
EXTT3=
EXTT4=
EXTT5=
EXTT6=
EXTT7=
EXTT8=
PLAYORDER=
